<?xml version="1.0" encoding="UTF-8"?>
<svg id="Layer_1" data-name="Layer 1" xmlns="http://www.w3.org/2000/svg" viewBox="0 0 119.2 26.51">
  <defs>
    <style>
      .cls-1 {
        fill: #ffabcd;
      }
    </style>
  </defs>
  <polygon class="cls-1" points="12.02 11.83 11.73 11.83 9.62 4.44 6.38 4.44 6.38 22.47 9.62 22.47 9.62 15.07 9.9 15.07 12.02 22.47 15.26 22.47 15.26 4.44 12.02 4.44 12.02 11.83"/>
  <path class="cls-1" d="M20.75,4.1h-1.01c-1.96,0-3.54,1.59-3.54,3.54v11.12c0,2.24,1.81,4.05,4.05,4.05s4.05-1.81,4.05-4.05V7.64c0-1.96-1.59-3.54-3.54-3.54ZM21.06,18.76c0,.45-.36.81-.81.81s-.81-.36-.81-.81v-10.61c0-.45.36-.81.81-.81s.81.36.81.81v10.61Z"/>
  <polygon class="cls-1" points="25.11 4.44 25.11 7.68 27.59 7.68 27.59 22.47 30.83 22.47 30.83 7.68 33.26 7.68 33.26 4.44 25.11 4.44"/>
  <polygon class="cls-1" points="36.65 22.47 39.89 22.47 39.89 7.68 42.32 7.68 42.32 4.44 34.17 4.44 34.17 7.68 36.65 7.68 36.65 22.47"/>
  <path class="cls-1" d="M47.69,4.1h-1.01c-1.96,0-3.54,1.59-3.54,3.54v11.12c0,2.24,1.81,4.05,4.05,4.05s4.05-1.81,4.05-4.05V7.64c0-1.96-1.59-3.54-3.54-3.54ZM47.99,18.76c0,.45-.36.81-.81.81s-.81-.36-.81-.81v-10.61c0-.45.36-.81.81-.81s.81.36.81.81v10.61Z"/>
  <polygon class="cls-1" points="55.42 13.45 55.7 13.45 56.5 22.47 59.64 22.47 60.43 13.45 60.71 13.45 60.71 22.47 63.96 22.47 63.96 4.44 58.86 4.44 58.86 4.45 58.21 13.45 57.93 13.45 57.27 4.45 57.27 4.44 52.18 4.44 52.18 22.47 55.42 22.47 55.42 13.45"/>
  <path class="cls-1" d="M69.46,4.1h-1.01c-1.96,0-3.54,1.59-3.54,3.54v11.12c0,2.24,1.81,4.05,4.05,4.05s4.05-1.81,4.05-4.05V7.64c0-1.96-1.59-3.54-3.54-3.54ZM69.76,18.76c0,.45-.36.81-.81.81s-.81-.36-.81-.81v-10.61c0-.45.36-.81.81-.81s.81.36.81.81v10.61Z"/>
  <path class="cls-1" d="M82.05,12.17v-4.18c0-1.96-1.59-3.54-3.54-3.54h-4.56v18.02h3.24v-6.75h.27l1.31,6.75h3.58l-1.71-7.47c.86-.64,1.41-1.67,1.41-2.83ZM78.81,11.66c0,.45-.36.81-.81.81h-.81v-4.79h.81c.45,0,.81.36.81.81v3.17Z"/>
  <path class="cls-1" d="M91.11,12.17v-4.18c0-1.96-1.59-3.54-3.54-3.54h-4.56v18.02h3.24v-6.75h.27l1.31,6.75h3.58l-1.71-7.47c.86-.64,1.41-1.67,1.41-2.83ZM87.87,11.66c0,.45-.36.81-.81.81h-.81v-4.79h.81c.45,0,.81.36.81.81v3.17Z"/>
  <path class="cls-1" d="M96.63,4.1h-1.01c-1.96,0-3.54,1.59-3.54,3.54v11.12c0,2.24,1.81,4.05,4.05,4.05s4.05-1.81,4.05-4.05V7.64c0-1.96-1.59-3.54-3.54-3.54ZM96.93,18.76c0,.45-.36.81-.81.81s-.81-.36-.81-.81v-10.61c0-.45.36-.81.81-.81s.81.36.81.81v10.61Z"/>
  <polygon class="cls-1" points="110.91 4.44 110.12 19.23 109.83 19.23 109.03 4.44 105.9 4.44 105.1 19.23 104.81 19.23 104.02 4.44 100.88 4.44 101.89 22.47 107.04 22.47 107.32 15.08 107.6 15.08 107.89 22.47 113.04 22.47 114.05 4.44 110.91 4.44"/>
</svg>