<?xml version="1.0" encoding="UTF-8"?>
<svg id="Layer_1" xmlns="http://www.w3.org/2000/svg" version="1.1" viewBox="0 0 119.2 19.12">
  <!-- Generator: Adobe Illustrator 29.8.2, SVG Export Plug-In . SVG Version: 2.1.1 Build 3)  -->
  <path d="M51.02,18.52l-2.11-7.36h-.29v7.36h-3.23V.58h3.23l2.11,7.36h.29V.58h3.23v17.94h-3.23Z"/>
  <path d="M58.24.24h1.01c1.95,0,3.53,1.58,3.53,3.53v11.07c0,2.23-1.81,4.03-4.03,4.03s-4.03-1.81-4.03-4.03V3.76c0-1.95,1.58-3.53,3.53-3.53h0ZM58.75,15.64c.45,0,.81-.36.81-.81V4.27c0-.45-.36-.81-.81-.81s-.81.36-.81.81v10.56c0,.44.36.81.81.81Z"/>
  <path d="M75.12,18.52h-5.12l-.28-7.36h-.28l-.28,7.36h-5.12l-1.01-17.94h3.12l.79,14.72h.29l.79-14.72h3.12l.79,14.72h.29l.79-14.72h3.12l-1.01,17.94h0Z"/>
  <path d="M75.68,15.3h3.22v3.23h-3.22v-3.23Z"/>
</svg>